<svg width="392" height="301" viewBox="0 0 392 301" fill="none" xmlns="http://www.w3.org/2000/svg">
<rect x="1" y="55" width="77" height="77" rx="10" stroke="url(#paint0_linear_1_155)" stroke-opacity="0.15"/>
<rect x="102" y="55" width="77" height="77" rx="10" fill="#5F12E6" fill-opacity="0.1" stroke="#5F12E6"/>
<rect x="203" y="55" width="77" height="77" rx="10" stroke="url(#paint1_linear_1_155)" stroke-opacity="0.15"/>
<rect x="303" y="55" width="77" height="77" rx="10" stroke="url(#paint2_linear_1_155)" stroke-opacity="0.15"/>
<rect x="1" y="169" width="77" height="77" rx="10" stroke="url(#paint3_linear_1_155)" stroke-opacity="0.15"/>
<rect x="102" y="169" width="77" height="77" rx="10" stroke="url(#paint4_linear_1_155)" stroke-opacity="0.15"/>
<rect x="203" y="169" width="77" height="77" rx="10" fill="#0FF0B8" fill-opacity="0.05" stroke="#0FF0B8"/>
<rect x="303" y="169" width="77" height="77" rx="10" stroke="url(#paint5_linear_1_155)" stroke-opacity="0.15"/>
<path d="M120.057 89.2727H121.318L124.284 96.517H124.386L127.352 89.2727H128.614V98H127.625V91.3693H127.54L124.812 98H123.858L121.131 91.3693H121.045V98H120.057V89.2727ZM133.255 98.1364C132.664 98.1364 132.146 97.9957 131.7 97.7145C131.257 97.4332 130.91 97.0398 130.66 96.5341C130.413 96.0284 130.289 95.4375 130.289 94.7614C130.289 94.0795 130.413 93.4844 130.66 92.9759C130.91 92.4673 131.257 92.0724 131.7 91.7912C132.146 91.5099 132.664 91.3693 133.255 91.3693C133.846 91.3693 134.363 91.5099 134.806 91.7912C135.252 92.0724 135.599 92.4673 135.846 92.9759C136.096 93.4844 136.221 94.0795 136.221 94.7614C136.221 95.4375 136.096 96.0284 135.846 96.5341C135.599 97.0398 135.252 97.4332 134.806 97.7145C134.363 97.9957 133.846 98.1364 133.255 98.1364ZM133.255 97.233C133.704 97.233 134.074 97.1179 134.363 96.8878C134.653 96.6577 134.868 96.3551 135.007 95.9801C135.146 95.6051 135.216 95.1989 135.216 94.7614C135.216 94.3239 135.146 93.9162 135.007 93.5384C134.868 93.1605 134.653 92.8551 134.363 92.6222C134.074 92.3892 133.704 92.2727 133.255 92.2727C132.806 92.2727 132.437 92.3892 132.147 92.6222C131.858 92.8551 131.643 93.1605 131.504 93.5384C131.365 93.9162 131.295 94.3239 131.295 94.7614C131.295 95.1989 131.365 95.6051 131.504 95.9801C131.643 96.3551 131.858 96.6577 132.147 96.8878C132.437 97.1179 132.806 97.233 133.255 97.233ZM138.762 94.0625V98H137.756V91.4545H138.728V92.4773H138.813C138.967 92.1449 139.2 91.8778 139.512 91.6761C139.825 91.4716 140.228 91.3693 140.722 91.3693C141.165 91.3693 141.553 91.4602 141.886 91.642C142.218 91.821 142.477 92.0938 142.661 92.4602C142.846 92.8239 142.938 93.2841 142.938 93.8409V98H141.933V93.9091C141.933 93.3949 141.799 92.9943 141.532 92.7074C141.265 92.4176 140.898 92.2727 140.433 92.2727C140.112 92.2727 139.825 92.3423 139.572 92.4815C139.322 92.6207 139.124 92.8239 138.979 93.0909C138.835 93.358 138.762 93.6818 138.762 94.0625ZM144.776 98V91.4545H145.782V98H144.776ZM145.287 90.3636C145.091 90.3636 144.922 90.2969 144.78 90.1634C144.641 90.0298 144.571 89.8693 144.571 89.6818C144.571 89.4943 144.641 89.3338 144.78 89.2003C144.922 89.0668 145.091 89 145.287 89C145.483 89 145.651 89.0668 145.79 89.2003C145.932 89.3338 146.003 89.4943 146.003 89.6818C146.003 89.8693 145.932 90.0298 145.79 90.1634C145.651 90.2969 145.483 90.3636 145.287 90.3636ZM150.47 91.4545V92.3068H147.078V91.4545H150.47ZM148.067 89.8864H149.072V96.125C149.072 96.4091 149.114 96.6222 149.196 96.7642C149.281 96.9034 149.389 96.9972 149.52 97.0455C149.653 97.0909 149.794 97.1136 149.942 97.1136C150.053 97.1136 150.143 97.108 150.214 97.0966C150.286 97.0824 150.342 97.071 150.385 97.0625L150.589 97.9659C150.521 97.9915 150.426 98.017 150.304 98.0426C150.182 98.071 150.027 98.0852 149.839 98.0852C149.555 98.0852 149.277 98.0241 149.004 97.902C148.734 97.7798 148.51 97.5938 148.331 97.3438C148.155 97.0938 148.067 96.7784 148.067 96.3977V89.8864ZM154.572 98.1364C153.981 98.1364 153.462 97.9957 153.016 97.7145C152.573 97.4332 152.227 97.0398 151.977 96.5341C151.729 96.0284 151.606 95.4375 151.606 94.7614C151.606 94.0795 151.729 93.4844 151.977 92.9759C152.227 92.4673 152.573 92.0724 153.016 91.7912C153.462 91.5099 153.981 91.3693 154.572 91.3693C155.163 91.3693 155.68 91.5099 156.123 91.7912C156.569 92.0724 156.915 92.4673 157.163 92.9759C157.413 93.4844 157.538 94.0795 157.538 94.7614C157.538 95.4375 157.413 96.0284 157.163 96.5341C156.915 97.0398 156.569 97.4332 156.123 97.7145C155.68 97.9957 155.163 98.1364 154.572 98.1364ZM154.572 97.233C155.021 97.233 155.39 97.1179 155.68 96.8878C155.969 96.6577 156.184 96.3551 156.323 95.9801C156.462 95.6051 156.532 95.1989 156.532 94.7614C156.532 94.3239 156.462 93.9162 156.323 93.5384C156.184 93.1605 155.969 92.8551 155.68 92.6222C155.39 92.3892 155.021 92.2727 154.572 92.2727C154.123 92.2727 153.754 92.3892 153.464 92.6222C153.174 92.8551 152.96 93.1605 152.82 93.5384C152.681 93.9162 152.612 94.3239 152.612 94.7614C152.612 95.1989 152.681 95.6051 152.82 95.9801C152.96 96.3551 153.174 96.6577 153.464 96.8878C153.754 97.1179 154.123 97.233 154.572 97.233ZM159.073 98V91.4545H160.044V92.4432H160.113C160.232 92.1193 160.448 91.8565 160.76 91.6548C161.073 91.4531 161.425 91.3523 161.817 91.3523C161.891 91.3523 161.983 91.3537 162.094 91.3565C162.205 91.3594 162.289 91.3636 162.346 91.3693V92.392C162.311 92.3835 162.233 92.3707 162.111 92.3537C161.992 92.3338 161.865 92.3239 161.732 92.3239C161.414 92.3239 161.13 92.3906 160.88 92.5241C160.632 92.6548 160.436 92.8366 160.292 93.0696C160.15 93.2997 160.078 93.5625 160.078 93.858V98H159.073Z" fill="#CDCDCD"/>
<path d="M225.415 212H224.307L227.511 203.273H228.602L231.807 212H230.699L228.091 204.653H228.023L225.415 212ZM225.824 208.591H230.29V209.528H225.824V208.591ZM235.689 212.136C235.075 212.136 234.547 211.991 234.104 211.702C233.661 211.412 233.32 211.013 233.081 210.504C232.842 209.996 232.723 209.415 232.723 208.761C232.723 208.097 232.845 207.51 233.089 207.001C233.337 206.49 233.68 206.091 234.121 205.804C234.564 205.514 235.081 205.369 235.672 205.369C236.132 205.369 236.547 205.455 236.916 205.625C237.286 205.795 237.588 206.034 237.824 206.341C238.06 206.648 238.206 207.006 238.263 207.415H237.257C237.18 207.116 237.01 206.852 236.746 206.622C236.484 206.389 236.132 206.273 235.689 206.273C235.297 206.273 234.953 206.375 234.658 206.58C234.365 206.781 234.136 207.067 233.972 207.436C233.81 207.803 233.729 208.233 233.729 208.727C233.729 209.233 233.808 209.673 233.967 210.048C234.129 210.423 234.357 210.714 234.649 210.922C234.945 211.129 235.291 211.233 235.689 211.233C235.95 211.233 236.188 211.188 236.401 211.097C236.614 211.006 236.794 210.875 236.942 210.705C237.089 210.534 237.195 210.33 237.257 210.091H238.263C238.206 210.477 238.065 210.825 237.841 211.135C237.619 211.442 237.325 211.686 236.959 211.868C236.595 212.047 236.172 212.136 235.689 212.136ZM242.58 205.455V206.307H239.188V205.455H242.58ZM240.176 203.886H241.182V210.125C241.182 210.409 241.223 210.622 241.305 210.764C241.391 210.903 241.499 210.997 241.629 211.045C241.763 211.091 241.903 211.114 242.051 211.114C242.162 211.114 242.253 211.108 242.324 211.097C242.395 211.082 242.452 211.071 242.494 211.062L242.699 211.966C242.631 211.991 242.536 212.017 242.413 212.043C242.291 212.071 242.136 212.085 241.949 212.085C241.665 212.085 241.386 212.024 241.114 211.902C240.844 211.78 240.619 211.594 240.44 211.344C240.264 211.094 240.176 210.778 240.176 210.398V203.886ZM244.092 212V205.455H245.098V212H244.092ZM244.604 204.364C244.408 204.364 244.239 204.297 244.097 204.163C243.957 204.03 243.888 203.869 243.888 203.682C243.888 203.494 243.957 203.334 244.097 203.2C244.239 203.067 244.408 203 244.604 203C244.8 203 244.967 203.067 245.107 203.2C245.249 203.334 245.32 203.494 245.32 203.682C245.32 203.869 245.249 204.03 245.107 204.163C244.967 204.297 244.8 204.364 244.604 204.364ZM252.292 205.455L249.872 212H248.849L246.429 205.455H247.52L249.326 210.67H249.395L251.201 205.455H252.292ZM256.13 212.136C255.499 212.136 254.955 211.997 254.498 211.719C254.043 211.438 253.692 211.045 253.445 210.543C253.201 210.037 253.078 209.449 253.078 208.778C253.078 208.108 253.201 207.517 253.445 207.006C253.692 206.491 254.036 206.091 254.476 205.804C254.919 205.514 255.436 205.369 256.027 205.369C256.368 205.369 256.705 205.426 257.037 205.54C257.37 205.653 257.672 205.838 257.945 206.094C258.218 206.347 258.435 206.682 258.597 207.099C258.759 207.517 258.84 208.031 258.84 208.642V209.068H253.794V208.199H257.817C257.817 207.83 257.743 207.5 257.596 207.21C257.451 206.92 257.243 206.692 256.973 206.524C256.706 206.357 256.391 206.273 256.027 206.273C255.627 206.273 255.28 206.372 254.988 206.571C254.698 206.767 254.475 207.023 254.319 207.338C254.162 207.653 254.084 207.991 254.084 208.352V208.932C254.084 209.426 254.169 209.845 254.34 210.189C254.513 210.53 254.753 210.79 255.06 210.969C255.367 211.145 255.723 211.233 256.13 211.233C256.394 211.233 256.632 211.196 256.846 211.122C257.061 211.045 257.248 210.932 257.404 210.781C257.56 210.628 257.681 210.437 257.766 210.21L258.738 210.483C258.635 210.812 258.463 211.102 258.222 211.352C257.98 211.599 257.682 211.793 257.327 211.932C256.972 212.068 256.573 212.136 256.13 212.136Z" fill="#CDCDCD"/>
<path d="M39 132.5C39 169 142.5 132.5 142.5 169" stroke="#7D7D7D" stroke-opacity="0.15"/>
<path d="M140.5 132C141 167.5 241.5 134 241.5 169.5" stroke="url(#paint6_linear_1_155)"/>
<path d="M242 132.5C242 169 345.5 134 345.5 169.5" stroke="#7D7D7D" stroke-opacity="0.15"/>
<circle cx="39" cy="132" r="4" fill="#152027"/>
<circle cx="142" cy="169" r="4" fill="#152027"/>
<circle cx="141" cy="132" r="4" fill="#5F12E6"/>
<circle cx="241" cy="169" r="4" fill="#0FF0B8"/>
<circle cx="242" cy="131" r="4" fill="#152027"/>
<circle cx="345" cy="169" r="4" fill="#152027"/>
<ellipse cx="237.5" cy="150.5" rx="154.5" ry="150.5" fill="url(#paint7_radial_1_155)" fill-opacity="0.15"/>
<rect x="12" y="87" width="56" height="13" rx="6.5" fill="#D9D9D9" fill-opacity="0.03"/>
<rect x="214" y="87" width="56" height="13" rx="6.5" fill="#D9D9D9" fill-opacity="0.03"/>
<rect x="314" y="87" width="56" height="13" rx="6.5" fill="#D9D9D9" fill-opacity="0.03"/>
<rect x="314" y="201" width="56" height="13" rx="6.5" fill="#D9D9D9" fill-opacity="0.03"/>
<rect x="113" y="201" width="56" height="13" rx="6.5" fill="#D9D9D9" fill-opacity="0.03"/>
<rect x="12" y="201" width="56" height="13" rx="6.5" fill="#D9D9D9" fill-opacity="0.03"/>
<defs>
<linearGradient id="paint0_linear_1_155" x1="7.5" y1="55" x2="78" y2="132" gradientUnits="userSpaceOnUse">
<stop stop-color="#7D7D7D"/>
<stop offset="1" stop-color="#E3E3E3" stop-opacity="0"/>
</linearGradient>
<linearGradient id="paint1_linear_1_155" x1="209.5" y1="55" x2="280" y2="132" gradientUnits="userSpaceOnUse">
<stop stop-color="#7D7D7D"/>
<stop offset="1" stop-color="#E3E3E3" stop-opacity="0"/>
</linearGradient>
<linearGradient id="paint2_linear_1_155" x1="309.5" y1="55" x2="380" y2="132" gradientUnits="userSpaceOnUse">
<stop stop-color="#7D7D7D"/>
<stop offset="1" stop-color="#E3E3E3" stop-opacity="0"/>
</linearGradient>
<linearGradient id="paint3_linear_1_155" x1="7.5" y1="169" x2="78" y2="246" gradientUnits="userSpaceOnUse">
<stop stop-color="#7D7D7D"/>
<stop offset="1" stop-color="#E3E3E3" stop-opacity="0"/>
</linearGradient>
<linearGradient id="paint4_linear_1_155" x1="108.5" y1="169" x2="179" y2="246" gradientUnits="userSpaceOnUse">
<stop stop-color="#7D7D7D"/>
<stop offset="1" stop-color="#E3E3E3" stop-opacity="0"/>
</linearGradient>
<linearGradient id="paint5_linear_1_155" x1="309.5" y1="169" x2="380" y2="246" gradientUnits="userSpaceOnUse">
<stop stop-color="#7D7D7D"/>
<stop offset="1" stop-color="#E3E3E3" stop-opacity="0"/>
</linearGradient>
<linearGradient id="paint6_linear_1_155" x1="242" y1="166" x2="141" y2="132" gradientUnits="userSpaceOnUse">
<stop stop-color="#063532"/>
<stop offset="1" stop-color="#251064"/>
</linearGradient>
<radialGradient id="paint7_radial_1_155" cx="0" cy="0" r="1" gradientUnits="userSpaceOnUse" gradientTransform="translate(237.5 150.5) rotate(90) scale(150.5 154.5)">
<stop stop-color="#C3B1FA"/>
<stop offset="0.455" stop-color="#987BF0" stop-opacity="0.58"/>
<stop offset="1" stop-color="#6C3BFF" stop-opacity="0"/>
</radialGradient>
</defs>
</svg>
