<svg width="436" height="227" viewBox="0 0 436 227" fill="none" xmlns="http://www.w3.org/2000/svg">
<circle cx="323.5" cy="110.5" r="33.5" fill="#1E1E1E" fill-opacity="0.23" stroke="#1E1E1E"/>
<g clip-path="url(#clip0_1_156)">
<path d="M338.959 111.125H333.6C328.92 111.125 325.125 114.919 325.125 119.6V124.958C332.513 124.411 338.411 118.512 338.959 111.125Z" fill="#775732"/>
<path d="M322.875 124.958V119.6C322.875 114.919 319.081 111.125 314.4 111.125H309.042C309.589 118.512 315.488 124.411 322.875 124.958Z" fill="#775732"/>
<path d="M338.959 108.875C338.411 101.487 332.513 95.5891 325.125 95.0414V100.4C325.125 105.08 328.92 108.875 333.6 108.875H338.959Z" fill="#775732"/>
<path d="M322.875 95.0414C315.488 95.5891 309.589 101.487 309.042 108.875H314.4C319.081 108.875 322.875 105.08 322.875 100.4V95.0414Z" fill="#775732"/>
<path d="M319.187 110C321.267 108.961 322.961 107.266 324 105.187C325.039 107.266 326.734 108.961 328.813 110C326.734 111.039 325.039 112.733 324 114.813C322.961 112.733 321.267 111.039 319.187 110Z" fill="#CA9352"/>
<rect x="309" y="95" width="30" height="30" fill="black" style="mix-blend-mode:saturation"/>
</g>
<circle cx="401.5" cy="110.5" r="33.5" fill="#1E1E1E" fill-opacity="0.23" stroke="#1E1E1E"/>
<g clip-path="url(#clip1_1_156)">
<path fill-rule="evenodd" clip-rule="evenodd" d="M406.167 103.764C404.933 102.94 403.483 102.5 402 102.5V95C404.967 95 407.867 95.8797 410.334 97.528C412.8 99.1762 414.723 101.519 415.858 104.26C416.993 107.001 417.291 110.017 416.712 112.926C416.133 115.836 414.704 118.509 412.607 120.607C410.509 122.704 407.836 124.133 404.926 124.712C402.017 125.291 399.001 124.993 396.26 123.858C393.519 122.723 391.176 120.8 389.528 118.334C387.88 115.867 387 112.967 387 110H394.5C394.5 111.483 394.94 112.933 395.764 114.167C396.588 115.4 397.759 116.361 399.13 116.929C400.5 117.497 402.008 117.645 403.463 117.356C404.918 117.066 406.254 116.352 407.303 115.303C408.352 114.254 409.066 112.918 409.356 111.463C409.645 110.008 409.497 108.5 408.929 107.13C408.361 105.759 407.4 104.588 406.167 103.764Z" fill="#007DFC"/>
<path fill-rule="evenodd" clip-rule="evenodd" d="M394.5 95C394.5 95.9849 394.306 96.9602 393.929 97.8701C393.552 98.7801 393 99.6069 392.303 100.303C391.607 101 390.78 101.552 389.87 101.929C388.96 102.306 387.985 102.5 387 102.5L387 110C388.97 110 390.92 109.612 392.74 108.858C394.56 108.104 396.214 106.999 397.607 105.607C398.999 104.214 400.104 102.56 400.858 100.74C401.612 98.9204 402 96.9698 402 95L394.5 95Z" fill="#007DFC"/>
<rect x="387" y="95" width="30" height="30" fill="black" style="mix-blend-mode:saturation"/>
</g>
<circle cx="112.5" cy="110.5" r="33.5" fill="#1E1E1E" fill-opacity="0.23" stroke="#1E1E1E"/>
<path fill-rule="evenodd" clip-rule="evenodd" d="M107.286 95C105.594 95 103.971 95.6723 102.774 96.8689L97 102.643V105.286C97 107.153 97.8021 108.833 99.0805 110C97.8021 111.167 97 112.847 97 114.714V117.357L102.774 123.131C103.971 124.328 105.594 125 107.286 125C109.153 125 110.833 124.198 112 122.919C113.167 124.198 114.847 125 116.714 125C118.406 125 120.029 124.328 121.226 123.131L127 117.357V114.714C127 112.847 126.198 111.167 124.92 110C126.198 108.833 127 107.153 127 105.286V102.643L121.226 96.8689C120.029 95.6723 118.406 95 116.714 95C114.847 95 113.167 95.8021 112 97.0805C110.833 95.8021 109.153 95 107.286 95ZM116.319 110C116.247 109.934 116.177 109.867 116.107 109.798L112 105.69L107.893 109.798C107.823 109.867 107.753 109.934 107.681 110C107.753 110.066 107.823 110.133 107.893 110.202L112 114.31L116.107 110.202C116.177 110.133 116.247 110.066 116.319 110ZM113.667 117.357V118.619C113.667 120.302 115.031 121.667 116.714 121.667C117.522 121.667 118.297 121.346 118.869 120.774L123.667 115.976V114.714C123.667 113.031 122.302 111.667 120.619 111.667C119.811 111.667 119.036 111.988 118.464 112.559L113.667 117.357ZM110.333 117.357L105.536 112.559C104.964 111.988 104.189 111.667 103.381 111.667C101.698 111.667 100.333 113.031 100.333 114.714V115.976L105.131 120.774C105.703 121.346 106.478 121.667 107.286 121.667C108.969 121.667 110.333 120.302 110.333 118.619V117.357ZM110.333 101.381V102.643L105.536 107.441C104.964 108.012 104.189 108.333 103.381 108.333C101.698 108.333 100.333 106.969 100.333 105.286V104.024L105.131 99.2259C105.703 98.6544 106.478 98.3333 107.286 98.3333C108.969 98.3333 110.333 99.6977 110.333 101.381ZM118.464 107.441L113.667 102.643V101.381C113.667 99.6977 115.031 98.3333 116.714 98.3333C117.522 98.3333 118.297 98.6544 118.869 99.2259L123.667 104.024V105.286C123.667 106.969 122.302 108.333 120.619 108.333C119.811 108.333 119.036 108.012 118.464 107.441Z" fill="#4C4C4C"/>
<circle cx="34.5" cy="110.5" r="33.5" fill="#1E1E1E" fill-opacity="0.23" stroke="#1E1E1E"/>
<g clip-path="url(#clip2_1_156)">
<path d="M28.8995 100.2H41.5485L32.2489 113.984H19.6L28.8995 100.2Z" fill="#007AFF"/>
<path d="M29.4534 115.261L25.8515 120.6H39.1005L48.4 106.816H38.6214L32.9238 115.261H29.4534Z" fill="#312ECB"/>
<rect x="19" y="99" width="30" height="23.4" fill="black" style="mix-blend-mode:saturation"/>
</g>
<circle cx="218.169" cy="111.169" r="45.1693" fill="#5F12E6" fill-opacity="0.1" stroke="#5F12E6"/>
<g clip-path="url(#clip3_1_156)">
<path d="M200.586 121.919C202.351 123.151 205.212 123.151 206.977 121.919C208.742 120.688 208.742 118.692 206.977 117.461C205.212 116.23 202.351 116.23 200.586 117.461C198.821 118.692 198.821 120.688 200.586 121.919Z" fill="#25CAAC"/>
<path d="M218.905 105.201C221.552 107.047 225.845 107.047 228.492 105.201C231.14 103.354 231.14 100.36 228.492 98.5134C225.845 96.6667 221.552 96.6667 218.905 98.5134C216.257 100.36 216.257 103.354 218.905 105.201Z" fill="#25CAAC"/>
<path d="M209.18 113.56C211.386 115.099 214.963 115.099 217.17 113.56C219.376 112.021 219.376 109.526 217.17 107.987C214.963 106.448 211.386 106.448 209.18 107.987C206.974 109.526 206.974 112.021 209.18 113.56Z" fill="#25CAAC"/>
<path d="M194.993 112.446C196.317 113.369 198.463 113.369 199.787 112.446C201.11 111.522 201.11 110.025 199.787 109.102C198.463 108.178 196.317 108.178 194.993 109.102C193.669 110.025 193.669 111.522 194.993 112.446Z" fill="#25CAAC"/>
<path d="M209.18 95.727C211.386 97.2659 214.963 97.2659 217.17 95.727C219.376 94.1881 219.376 91.6931 217.17 90.1542C214.963 88.6153 211.386 88.6153 209.18 90.1542C206.974 91.6931 206.974 94.1881 209.18 95.727Z" fill="#25CAAC"/>
<path d="M200.586 104.086C202.351 105.317 205.212 105.317 206.977 104.086C208.742 102.855 208.742 100.859 206.977 99.628C205.212 98.3969 202.351 98.3969 200.586 99.628C198.821 100.859 198.821 102.855 200.586 104.086Z" fill="#25CAAC"/>
<path d="M209.18 131.393C211.386 132.932 214.963 132.932 217.17 131.393C219.376 129.854 219.376 127.359 217.17 125.82C214.963 124.281 211.386 124.281 209.18 125.82C206.974 127.359 206.974 129.854 209.18 131.393Z" fill="#25CAAC"/>
<path d="M230.558 114.117C233.206 115.964 237.498 115.964 240.146 114.117C242.793 112.271 242.793 109.277 240.146 107.43C237.498 105.583 233.206 105.583 230.558 107.43C227.911 109.277 227.911 112.271 230.558 114.117Z" fill="#25CAAC"/>
<path d="M218.905 123.034C221.552 124.881 225.845 124.881 228.492 123.034C231.14 121.187 231.14 118.193 228.492 116.346C225.845 114.5 221.552 114.5 218.905 116.346C216.257 118.193 216.257 121.187 218.905 123.034Z" fill="#25CAAC"/>
</g>
<ellipse cx="215.5" cy="113.5" rx="116.517" ry="113.5" fill="url(#paint0_radial_1_156)" fill-opacity="0.15"/>
<defs>
<radialGradient id="paint0_radial_1_156" cx="0" cy="0" r="1" gradientUnits="userSpaceOnUse" gradientTransform="translate(215.5 113.5) rotate(90) scale(113.5 116.517)">
<stop stop-color="#C3B1FA"/>
<stop offset="0.455" stop-color="#987BF0" stop-opacity="0.58"/>
<stop offset="1" stop-color="#6C3BFF" stop-opacity="0"/>
</radialGradient>
<clipPath id="clip0_1_156">
<rect width="30" height="30" fill="white" transform="translate(309 95)"/>
</clipPath>
<clipPath id="clip1_1_156">
<rect width="30" height="30" fill="white" transform="translate(387 95)"/>
</clipPath>
<clipPath id="clip2_1_156">
<rect width="30" height="23.4" fill="white" transform="translate(19 99)"/>
</clipPath>
<clipPath id="clip3_1_156">
<rect width="48.1312" height="43.5473" fill="white" transform="translate(194 89)"/>
</clipPath>
</defs>
</svg>
