<svg width="412" height="106" viewBox="0 0 412 106" fill="none" xmlns="http://www.w3.org/2000/svg">
<path d="M21.9159 83.8541C21.5528 83.8541 21.2435 83.7553 20.988 83.5577C20.7325 83.3584 20.5373 83.07 20.4024 82.6924C20.2674 82.3132 20.1999 81.8553 20.1999 81.3187C20.1999 80.7852 20.2674 80.3297 20.4024 79.9521C20.5389 79.573 20.735 79.2837 20.9904 79.0845C21.2475 78.8837 21.556 78.7832 21.9159 78.7832C22.2758 78.7832 22.5835 78.8837 22.839 79.0845C23.0961 79.2837 23.2921 79.573 23.427 79.9521C23.5636 80.3297 23.6319 80.7852 23.6319 81.3187C23.6319 81.8553 23.5644 82.3132 23.4295 82.6924C23.2945 83.07 23.0993 83.3584 22.8438 83.5577C22.5883 83.7553 22.279 83.8541 21.9159 83.8541ZM21.9159 83.3239C22.2758 83.3239 22.5554 83.1504 22.7546 82.8033C22.9539 82.4562 23.0535 81.9614 23.0535 81.3187C23.0535 80.8913 23.0077 80.5274 22.9161 80.2269C22.8261 79.9264 22.696 79.6975 22.5257 79.54C22.357 79.3826 22.1537 79.3038 21.9159 79.3038C21.5592 79.3038 21.2804 79.4798 21.0796 79.8316C20.8788 80.1819 20.7783 80.6776 20.7783 81.3187C20.7783 81.7461 20.8233 82.1092 20.9133 82.408C21.0033 82.7069 21.1326 82.9342 21.3013 83.0901C21.4716 83.246 21.6765 83.3239 21.9159 83.3239Z" fill="#444C73"/>
<path d="M29.8789 91.6584C29.85 91.4142 29.7327 91.2246 29.527 91.0896C29.3214 90.9547 29.0691 90.8872 28.7703 90.8872C28.5517 90.8872 28.3605 90.9225 28.1967 90.9932C28.0344 91.0639 27.9074 91.1611 27.8159 91.2849C27.7259 91.4086 27.6809 91.5492 27.6809 91.7066C27.6809 91.8384 27.7122 91.9517 27.7749 92.0465C27.8392 92.1396 27.9211 92.2176 28.0207 92.2802C28.1203 92.3413 28.2248 92.3919 28.334 92.4321C28.4433 92.4706 28.5437 92.502 28.6353 92.5261L29.1366 92.661C29.2651 92.6948 29.4081 92.7414 29.5656 92.8008C29.7247 92.8603 29.8765 92.9414 30.0211 93.0442C30.1673 93.1455 30.2878 93.2756 30.3826 93.4347C30.4774 93.5937 30.5248 93.789 30.5248 94.0203C30.5248 94.2871 30.4549 94.5281 30.3151 94.7434C30.177 94.9587 29.9745 95.1298 29.7078 95.2567C29.4427 95.3836 29.1205 95.4471 28.7413 95.4471C28.3879 95.4471 28.0818 95.3901 27.8231 95.276C27.566 95.1619 27.3636 95.0029 27.2157 94.7988C27.0695 94.5947 26.9868 94.3577 26.9675 94.0878H27.5845C27.6006 94.2742 27.6632 94.4284 27.7725 94.5506C27.8833 94.6711 28.0231 94.761 28.1918 94.8205C28.3621 94.8783 28.5453 94.9073 28.7413 94.9073C28.9695 94.9073 29.1744 94.8703 29.3559 94.7964C29.5375 94.7209 29.6813 94.6164 29.7873 94.4831C29.8934 94.3481 29.9464 94.1906 29.9464 94.0107C29.9464 93.8468 29.9006 93.7134 29.809 93.6106C29.7174 93.5078 29.5969 93.4242 29.4475 93.36C29.2981 93.2957 29.1366 93.2395 28.9631 93.1913L28.3557 93.0177C27.9701 92.9069 27.6648 92.7486 27.4399 92.5429C27.2149 92.3373 27.1025 92.0681 27.1025 91.7356C27.1025 91.4592 27.1772 91.2182 27.3266 91.0125C27.4776 90.8052 27.6801 90.6446 27.9339 90.5305C28.1894 90.4148 28.4746 90.357 28.7895 90.357C29.1077 90.357 29.3905 90.414 29.6379 90.5281C29.8853 90.6406 30.0814 90.7948 30.226 90.9908C30.3722 91.1868 30.4493 91.4094 30.4573 91.6584H29.8789ZM32.5198 95.4471C32.2852 95.4471 32.0723 95.4029 31.8811 95.3146C31.6899 95.2246 31.5381 95.0952 31.4256 94.9265C31.3131 94.7562 31.2569 94.5506 31.2569 94.3095C31.2569 94.0975 31.2987 93.9255 31.3822 93.7938C31.4658 93.6604 31.5774 93.556 31.7172 93.4805C31.857 93.405 32.0112 93.3487 32.18 93.3118C32.3503 93.2732 32.5214 93.2427 32.6933 93.2202C32.9183 93.1913 33.1006 93.1696 33.2404 93.1551C33.3818 93.139 33.4846 93.1125 33.5489 93.0756C33.6148 93.0386 33.6477 92.9743 33.6477 92.8828V92.8635C33.6477 92.6257 33.5826 92.4409 33.4525 92.3092C33.324 92.1774 33.1287 92.1115 32.8668 92.1115C32.5953 92.1115 32.3824 92.171 32.2282 92.2899C32.0739 92.4088 31.9655 92.5357 31.9028 92.6707L31.3629 92.4779C31.4593 92.2529 31.5879 92.0778 31.7485 91.9525C31.9108 91.8255 32.0876 91.7372 32.2788 91.6873C32.4716 91.6359 32.6612 91.6102 32.8476 91.6102C32.9665 91.6102 33.103 91.6247 33.2573 91.6536C33.4131 91.6809 33.5634 91.738 33.708 91.8247C33.8542 91.9115 33.9755 92.0424 34.0719 92.2176C34.1683 92.3927 34.2165 92.6273 34.2165 92.9213V95.3604H33.6477V94.859H33.6188C33.5802 94.9394 33.516 95.0253 33.426 95.1169C33.336 95.2085 33.2163 95.2864 33.0669 95.3507C32.9174 95.415 32.7351 95.4471 32.5198 95.4471ZM32.6065 94.9362C32.8315 94.9362 33.0211 94.892 33.1753 94.8036C33.3312 94.7152 33.4485 94.6012 33.5272 94.4614C33.6075 94.3216 33.6477 94.1746 33.6477 94.0203V93.4997C33.6236 93.5287 33.5706 93.5552 33.4886 93.5793C33.4083 93.6018 33.3151 93.6219 33.2091 93.6395C33.1046 93.6556 33.0026 93.6701 32.903 93.6829C32.805 93.6942 32.7254 93.7038 32.6644 93.7118C32.5166 93.7311 32.3784 93.7625 32.2498 93.8058C32.1229 93.8476 32.0201 93.9111 31.9414 93.9962C31.8642 94.0798 31.8257 94.1939 31.8257 94.3385C31.8257 94.5361 31.8988 94.6855 32.045 94.7867C32.1928 94.8864 32.38 94.9362 32.6065 94.9362ZM36.8646 91.6584V92.1404H34.9462V91.6584H36.8646ZM35.5053 90.7715H36.0741V94.2999C36.0741 94.4606 36.0974 94.5811 36.144 94.6614C36.1922 94.7402 36.2532 94.7932 36.3271 94.8205C36.4027 94.8462 36.4822 94.859 36.5657 94.859C36.6284 94.859 36.6798 94.8558 36.72 94.8494C36.7602 94.8414 36.7923 94.8349 36.8164 94.8301L36.9321 95.3411C36.8935 95.3555 36.8397 95.37 36.7706 95.3845C36.7015 95.4005 36.6139 95.4086 36.5079 95.4086C36.3472 95.4086 36.1898 95.374 36.0355 95.3049C35.8829 95.2358 35.756 95.1306 35.6547 94.9892C35.5551 94.8478 35.5053 94.6695 35.5053 94.4542V90.7715Z" fill="#444C73"/>
<path d="M74.5591 91.6584C74.5302 91.4142 74.4129 91.2246 74.2072 91.0896C74.0015 90.9547 73.7493 90.8872 73.4504 90.8872C73.2319 90.8872 73.0407 90.9225 72.8768 90.9932C72.7145 91.0639 72.5876 91.1611 72.496 91.2849C72.4061 91.4086 72.3611 91.5492 72.3611 91.7066C72.3611 91.8384 72.3924 91.9517 72.4551 92.0465C72.5193 92.1396 72.6013 92.2176 72.7009 92.2802C72.8005 92.3413 72.9049 92.3919 73.0142 92.4321C73.1235 92.4706 73.2239 92.502 73.3155 92.5261L73.8168 92.661C73.9453 92.6948 74.0883 92.7414 74.2458 92.8008C74.4048 92.8603 74.5567 92.9414 74.7013 93.0442C74.8475 93.1455 74.968 93.2756 75.0628 93.4347C75.1576 93.5937 75.205 93.789 75.205 94.0203C75.205 94.2871 75.1351 94.5281 74.9953 94.7434C74.8571 94.9587 74.6547 95.1298 74.388 95.2567C74.1229 95.3836 73.8007 95.4471 73.4215 95.4471C73.068 95.4471 72.7619 95.3901 72.5033 95.276C72.2462 95.1619 72.0437 95.0029 71.8959 94.7988C71.7497 94.5947 71.667 94.3577 71.6477 94.0878H72.2647C72.2807 94.2742 72.3434 94.4284 72.4526 94.5506C72.5635 94.6711 72.7033 94.761 72.872 94.8205C73.0423 94.8783 73.2255 94.9073 73.4215 94.9073C73.6497 94.9073 73.8545 94.8703 74.0361 94.7964C74.2176 94.7209 74.3615 94.6164 74.4675 94.4831C74.5735 94.3481 74.6266 94.1906 74.6266 94.0107C74.6266 93.8468 74.5808 93.7134 74.4892 93.6106C74.3976 93.5078 74.2771 93.4242 74.1277 93.36C73.9782 93.2957 73.8168 93.2395 73.6432 93.1913L73.0359 93.0177C72.6503 92.9069 72.345 92.7486 72.1201 92.5429C71.8951 92.3373 71.7826 92.0681 71.7826 91.7356C71.7826 91.4592 71.8574 91.2182 72.0068 91.0125C72.1578 90.8052 72.3603 90.6446 72.6141 90.5305C72.8696 90.4148 73.1548 90.357 73.4697 90.357C73.7878 90.357 74.0706 90.414 74.3181 90.5281C74.5655 90.6406 74.7615 90.7948 74.9061 90.9908C75.0523 91.1868 75.1295 91.4094 75.1375 91.6584H74.5591ZM78.4436 93.8468V91.6584H79.0124V95.3604H78.4436V94.7337H78.405C78.3182 94.9217 78.1833 95.0816 78.0001 95.2133C77.8169 95.3435 77.5856 95.4086 77.306 95.4086C77.0746 95.4086 76.869 95.3579 76.689 95.2567C76.5091 95.1539 76.3677 94.9996 76.2648 94.794C76.162 94.5867 76.1106 94.3256 76.1106 94.0107V91.6584H76.6794V93.9721C76.6794 94.2421 76.7549 94.4574 76.9059 94.618C77.0586 94.7787 77.253 94.859 77.4892 94.859C77.6306 94.859 77.7744 94.8229 77.9206 94.7506C78.0684 94.6783 78.1921 94.5674 78.2917 94.418C78.393 94.2686 78.4436 94.0782 78.4436 93.8468ZM80.6229 93.1334V95.3604H80.0541V91.6584H80.6036V92.2369H80.6518C80.7386 92.0489 80.8703 91.8978 81.0471 91.7838C81.2238 91.6681 81.452 91.6102 81.7316 91.6102C81.9822 91.6102 82.2015 91.6616 82.3895 91.7645C82.5775 91.8657 82.7237 92.0199 82.8282 92.2272C82.9326 92.4329 82.9848 92.6932 82.9848 93.0081V95.3604H82.416V93.0466C82.416 92.7558 82.3405 92.5293 82.1895 92.367C82.0384 92.2031 81.8312 92.1212 81.5677 92.1212C81.3861 92.1212 81.2238 92.1605 81.0808 92.2393C80.9394 92.318 80.8278 92.4329 80.7458 92.5839C80.6639 92.7349 80.6229 92.9181 80.6229 93.1334Z" fill="#444C73"/>
<path d="M117.105 90.4245H117.819L119.496 94.5216H119.554L121.232 90.4245H121.945V95.3604H121.386V91.6102H121.338L119.795 95.3604H119.255L117.713 91.6102H117.665V95.3604H117.105V90.4245ZM124.57 95.4375C124.236 95.4375 123.943 95.3579 123.691 95.1989C123.44 95.0398 123.244 94.8173 123.102 94.5313C122.963 94.2453 122.893 93.9111 122.893 93.5287C122.893 93.1431 122.963 92.8064 123.102 92.5188C123.244 92.2312 123.44 92.0079 123.691 91.8488C123.943 91.6898 124.236 91.6102 124.57 91.6102C124.904 91.6102 125.197 91.6898 125.447 91.8488C125.7 92.0079 125.896 92.2312 126.036 92.5188C126.177 92.8064 126.248 93.1431 126.248 93.5287C126.248 93.9111 126.177 94.2453 126.036 94.5313C125.896 94.8173 125.7 95.0398 125.447 95.1989C125.197 95.3579 124.904 95.4375 124.57 95.4375ZM124.57 94.9265C124.824 94.9265 125.033 94.8615 125.197 94.7313C125.361 94.6012 125.482 94.4301 125.561 94.218C125.639 94.0059 125.679 93.7761 125.679 93.5287C125.679 93.2812 125.639 93.0507 125.561 92.837C125.482 92.6233 125.361 92.4505 125.197 92.3188C125.033 92.187 124.824 92.1212 124.57 92.1212C124.316 92.1212 124.107 92.187 123.944 92.3188C123.78 92.4505 123.658 92.6233 123.58 92.837C123.501 93.0507 123.462 93.2812 123.462 93.5287C123.462 93.7761 123.501 94.0059 123.58 94.218C123.658 94.4301 123.78 94.6012 123.944 94.7313C124.107 94.8615 124.316 94.9265 124.57 94.9265ZM127.685 93.1334V95.3604H127.116V91.6584H127.665V92.2369H127.714C127.8 92.0489 127.932 91.8978 128.109 91.7838C128.286 91.6681 128.514 91.6102 128.793 91.6102C129.044 91.6102 129.263 91.6616 129.451 91.7645C129.639 91.8657 129.785 92.0199 129.89 92.2272C129.994 92.4329 130.047 92.6932 130.047 93.0081V95.3604H129.478V93.0466C129.478 92.7558 129.402 92.5293 129.251 92.367C129.1 92.2031 128.893 92.1212 128.629 92.1212C128.448 92.1212 128.286 92.1605 128.143 92.2393C128.001 92.318 127.89 92.4329 127.808 92.5839C127.726 92.7349 127.685 92.9181 127.685 93.1334Z" fill="#444C73"/>
<path d="M161.516 90.9547V90.4245H165.218V90.9547H163.666V95.3604H163.068V90.9547H161.516ZM167.892 93.8468V91.6584H168.461V95.3604H167.892V94.7337H167.854C167.767 94.9217 167.632 95.0816 167.449 95.2133C167.266 95.3435 167.034 95.4086 166.755 95.4086C166.523 95.4086 166.318 95.3579 166.138 95.2567C165.958 95.1539 165.816 94.9996 165.714 94.794C165.611 94.5867 165.559 94.3256 165.559 94.0107V91.6584H166.128V93.9721C166.128 94.2421 166.204 94.4574 166.355 94.618C166.507 94.7787 166.702 94.859 166.938 94.859C167.079 94.859 167.223 94.8229 167.369 94.7506C167.517 94.6783 167.641 94.5674 167.74 94.418C167.842 94.2686 167.892 94.0782 167.892 93.8468ZM172.125 92.4875L171.614 92.6321C171.582 92.547 171.535 92.4642 171.472 92.3839C171.411 92.3019 171.327 92.2344 171.221 92.1814C171.115 92.1284 170.979 92.1019 170.814 92.1019C170.587 92.1019 170.399 92.1541 170.248 92.2585C170.098 92.3614 170.023 92.4923 170.023 92.6514C170.023 92.7928 170.075 92.9045 170.178 92.9864C170.28 93.0683 170.441 93.1366 170.66 93.1913L171.209 93.3262C171.54 93.4066 171.787 93.5295 171.949 93.695C172.111 93.8589 172.193 94.0701 172.193 94.3288C172.193 94.5409 172.131 94.7305 172.009 94.8976C171.889 95.0647 171.72 95.1965 171.503 95.2929C171.286 95.3893 171.034 95.4375 170.746 95.4375C170.369 95.4375 170.056 95.3555 169.809 95.1916C169.561 95.0278 169.405 94.7884 169.339 94.4734L169.879 94.3385C169.93 94.5377 170.027 94.6871 170.17 94.7867C170.315 94.8864 170.504 94.9362 170.737 94.9362C171.002 94.9362 171.212 94.8799 171.368 94.7675C171.526 94.6534 171.604 94.5168 171.604 94.3577C171.604 94.2292 171.559 94.1216 171.469 94.0348C171.379 93.9464 171.241 93.8805 171.055 93.8372L170.438 93.6926C170.099 93.6122 169.85 93.4877 169.691 93.319C169.533 93.1487 169.455 92.9358 169.455 92.6803C169.455 92.4714 169.513 92.2867 169.631 92.126C169.749 91.9653 169.911 91.8392 170.115 91.7476C170.321 91.656 170.554 91.6102 170.814 91.6102C171.18 91.6102 171.468 91.6906 171.677 91.8512C171.887 92.0119 172.037 92.224 172.125 92.4875Z" fill="#444C73"/>
<path d="M211.321 95.3604L209.972 90.4245H210.579L211.611 94.4445H211.659L212.71 90.4245H213.384L214.435 94.4445H214.483L215.515 90.4245H216.122L214.773 95.3604H214.156L213.066 91.4271H213.028L211.938 95.3604H211.321ZM217.997 95.4375C217.641 95.4375 217.333 95.3587 217.074 95.2013C216.817 95.0422 216.619 94.8205 216.479 94.5361C216.341 94.2501 216.272 93.9175 216.272 93.5383C216.272 93.1591 216.341 92.8249 216.479 92.5357C216.619 92.2449 216.813 92.0183 217.062 91.8561C217.313 91.6922 217.605 91.6102 217.94 91.6102C218.132 91.6102 218.323 91.6424 218.511 91.7066C218.699 91.7709 218.87 91.8753 219.024 92.0199C219.178 92.1629 219.301 92.3525 219.393 92.5887C219.484 92.8249 219.53 93.1157 219.53 93.4612V93.7022H216.677V93.2105H218.952C218.952 93.0017 218.91 92.8153 218.826 92.6514C218.745 92.4875 218.627 92.3582 218.475 92.2634C218.324 92.1686 218.145 92.1212 217.94 92.1212C217.713 92.1212 217.517 92.1774 217.352 92.2899C217.188 92.4007 217.061 92.5453 216.973 92.7237C216.885 92.902 216.841 93.0932 216.841 93.2973V93.6251C216.841 93.9046 216.889 94.1416 216.985 94.3361C217.083 94.5289 217.219 94.6759 217.392 94.7771C217.566 94.8767 217.768 94.9265 217.997 94.9265C218.147 94.9265 218.282 94.9056 218.402 94.8639C218.524 94.8205 218.63 94.7562 218.718 94.6711C218.806 94.5843 218.875 94.4766 218.923 94.3481L219.472 94.5024C219.415 94.6887 219.317 94.8526 219.181 94.994C219.044 95.1338 218.875 95.2431 218.675 95.3218C218.474 95.3989 218.248 95.4375 217.997 95.4375ZM220.964 93.1334V95.3604H220.395V91.6584H220.945V92.2369H220.993C221.08 92.0489 221.212 91.8978 221.388 91.7838C221.565 91.6681 221.793 91.6102 222.073 91.6102C222.324 91.6102 222.543 91.6616 222.731 91.7645C222.919 91.8657 223.065 92.0199 223.17 92.2272C223.274 92.4329 223.326 92.6932 223.326 93.0081V95.3604H222.757V93.0466C222.757 92.7558 222.682 92.5293 222.531 92.367C222.38 92.2031 222.173 92.1212 221.909 92.1212C221.727 92.1212 221.565 92.1605 221.422 92.2393C221.281 92.318 221.169 92.4329 221.087 92.5839C221.005 92.7349 220.964 92.9181 220.964 93.1334Z" fill="#444C73"/>
<path d="M254.835 90.9547V90.4245H258.537V90.9547H256.985V95.3604H256.387V90.9547H254.835ZM259.951 93.1334V95.3604H259.382V90.4245H259.951V92.2369H259.999C260.086 92.0457 260.216 91.8938 260.39 91.7813C260.565 91.6673 260.798 91.6102 261.089 91.6102C261.341 91.6102 261.562 91.6608 261.752 91.7621C261.941 91.8617 262.088 92.0151 262.193 92.2224C262.299 92.4281 262.352 92.69 262.352 93.0081V95.3604H261.783V93.0466C261.783 92.7526 261.707 92.5253 261.554 92.3646C261.403 92.2023 261.193 92.1212 260.925 92.1212C260.738 92.1212 260.571 92.1605 260.424 92.2393C260.277 92.318 260.162 92.4329 260.076 92.5839C259.993 92.7349 259.951 92.9181 259.951 93.1334ZM264.944 95.4375C264.588 95.4375 264.28 95.3587 264.021 95.2013C263.764 95.0422 263.566 94.8205 263.426 94.5361C263.288 94.2501 263.219 93.9175 263.219 93.5383C263.219 93.1591 263.288 92.8249 263.426 92.5357C263.566 92.2449 263.76 92.0183 264.009 91.8561C264.26 91.6922 264.552 91.6102 264.886 91.6102C265.079 91.6102 265.27 91.6424 265.458 91.7066C265.646 91.7709 265.817 91.8753 265.971 92.0199C266.125 92.1629 266.248 92.3525 266.34 92.5887C266.431 92.8249 266.477 93.1157 266.477 93.4612V93.7022H263.624V93.2105H265.899C265.899 93.0017 265.857 92.8153 265.773 92.6514C265.691 92.4875 265.574 92.3582 265.421 92.2634C265.27 92.1686 265.092 92.1212 264.886 92.1212C264.66 92.1212 264.464 92.1774 264.298 92.2899C264.134 92.4007 264.008 92.5453 263.92 92.7237C263.832 92.902 263.787 93.0932 263.787 93.2973V93.6251C263.787 93.9046 263.836 94.1416 263.932 94.3361C264.03 94.5289 264.166 94.6759 264.339 94.7771C264.513 94.8767 264.715 94.9265 264.944 94.9265C265.094 94.9265 265.229 94.9056 265.349 94.8639C265.471 94.8205 265.577 94.7562 265.665 94.6711C265.753 94.5843 265.822 94.4766 265.87 94.3481L266.419 94.5024C266.361 94.6887 266.264 94.8526 266.128 94.994C265.991 95.1338 265.822 95.2431 265.622 95.3218C265.421 95.3989 265.195 95.4375 264.944 95.4375Z" fill="#444C73"/>
<path d="M300.351 95.3604V90.4245H303.31V90.9547H300.948V92.6225H303.089V93.1527H300.948V95.3604H300.351ZM304.217 95.3604V91.6584H304.767V92.2176H304.805C304.873 92.0344 304.995 91.8858 305.172 91.7717C305.348 91.6576 305.548 91.6006 305.769 91.6006C305.811 91.6006 305.863 91.6014 305.926 91.603C305.989 91.6046 306.036 91.607 306.068 91.6102V92.1887C306.049 92.1838 306.005 92.1766 305.936 92.167C305.868 92.1557 305.797 92.1501 305.721 92.1501C305.541 92.1501 305.38 92.1878 305.239 92.2634C305.099 92.3373 304.988 92.4401 304.906 92.5719C304.826 92.702 304.786 92.8506 304.786 93.0177V95.3604H304.217ZM306.742 95.3604V91.6584H307.311V95.3604H306.742ZM307.032 91.0414C306.921 91.0414 306.825 91.0037 306.745 90.9282C306.666 90.8526 306.627 90.7619 306.627 90.6558C306.627 90.5498 306.666 90.459 306.745 90.3835C306.825 90.308 306.921 90.2702 307.032 90.2702C307.142 90.2702 307.237 90.308 307.316 90.3835C307.396 90.459 307.436 90.5498 307.436 90.6558C307.436 90.7619 307.396 90.8526 307.316 90.9282C307.237 91.0037 307.142 91.0414 307.032 91.0414Z" fill="#444C73"/>
<path d="M351.124 91.6584C351.095 91.4142 350.977 91.2246 350.772 91.0896C350.566 90.9547 350.314 90.8872 350.015 90.8872C349.797 90.8872 349.605 90.9225 349.441 90.9932C349.279 91.0639 349.152 91.1611 349.061 91.2849C348.971 91.4086 348.926 91.5492 348.926 91.7066C348.926 91.8384 348.957 91.9517 349.02 92.0465C349.084 92.1396 349.166 92.2176 349.265 92.2802C349.365 92.3413 349.47 92.3919 349.579 92.4321C349.688 92.4706 349.788 92.502 349.88 92.5261L350.381 92.661C350.51 92.6948 350.653 92.7414 350.81 92.8008C350.969 92.8603 351.121 92.9414 351.266 93.0442C351.412 93.1455 351.533 93.2756 351.627 93.4347C351.722 93.5937 351.77 93.789 351.77 94.0203C351.77 94.2871 351.7 94.5281 351.56 94.7434C351.422 94.9587 351.219 95.1298 350.953 95.2567C350.687 95.3836 350.365 95.4471 349.986 95.4471C349.633 95.4471 349.327 95.3901 349.068 95.276C348.811 95.1619 348.608 95.0029 348.461 94.7988C348.314 94.5947 348.232 94.3577 348.212 94.0878H348.829C348.845 94.2742 348.908 94.4284 349.017 94.5506C349.128 94.6711 349.268 94.761 349.437 94.8205C349.607 94.8783 349.79 94.9073 349.986 94.9073C350.214 94.9073 350.419 94.8703 350.601 94.7964C350.782 94.7209 350.926 94.6164 351.032 94.4831C351.138 94.3481 351.191 94.1906 351.191 94.0107C351.191 93.8468 351.145 93.7134 351.054 93.6106C350.962 93.5078 350.842 93.4242 350.692 93.36C350.543 93.2957 350.381 93.2395 350.208 93.1913L349.6 93.0177C349.215 92.9069 348.91 92.7486 348.685 92.5429C348.46 92.3373 348.347 92.0681 348.347 91.7356C348.347 91.4592 348.422 91.2182 348.571 91.0125C348.722 90.8052 348.925 90.6446 349.179 90.5305C349.434 90.4148 349.719 90.357 350.034 90.357C350.352 90.357 350.635 90.414 350.883 90.5281C351.13 90.6406 351.326 90.7948 351.471 90.9908C351.617 91.1868 351.694 91.4094 351.702 91.6584H351.124ZM353.765 95.4471C353.53 95.4471 353.317 95.4029 353.126 95.3146C352.935 95.2246 352.783 95.0952 352.67 94.9265C352.558 94.7562 352.502 94.5506 352.502 94.3095C352.502 94.0975 352.543 93.9255 352.627 93.7938C352.711 93.6604 352.822 93.556 352.962 93.4805C353.102 93.405 353.256 93.3487 353.425 93.3118C353.595 93.2732 353.766 93.2427 353.938 93.2202C354.163 93.1913 354.345 93.1696 354.485 93.1551C354.627 93.139 354.729 93.1125 354.794 93.0756C354.86 93.0386 354.892 92.9743 354.892 92.8828V92.8635C354.892 92.6257 354.827 92.4409 354.697 92.3092C354.569 92.1774 354.374 92.1115 354.112 92.1115C353.84 92.1115 353.627 92.171 353.473 92.2899C353.319 92.4088 353.21 92.5357 353.148 92.6707L352.608 92.4779C352.704 92.2529 352.833 92.0778 352.993 91.9525C353.156 91.8255 353.332 91.7372 353.524 91.6873C353.716 91.6359 353.906 91.6102 354.092 91.6102C354.211 91.6102 354.348 91.6247 354.502 91.6536C354.658 91.6809 354.808 91.738 354.953 91.8247C355.099 91.9115 355.22 92.0424 355.317 92.2176C355.413 92.3927 355.461 92.6273 355.461 92.9213V95.3604H354.892V94.859H354.864C354.825 94.9394 354.761 95.0253 354.671 95.1169C354.581 95.2085 354.461 95.2864 354.312 95.3507C354.162 95.415 353.98 95.4471 353.765 95.4471ZM353.851 94.9362C354.076 94.9362 354.266 94.892 354.42 94.8036C354.576 94.7152 354.693 94.6012 354.772 94.4614C354.852 94.3216 354.892 94.1746 354.892 94.0203V93.4997C354.868 93.5287 354.815 93.5552 354.733 93.5793C354.653 93.6018 354.56 93.6219 354.454 93.6395C354.349 93.6556 354.247 93.6701 354.148 93.6829C354.05 93.6942 353.97 93.7038 353.909 93.7118C353.761 93.7311 353.623 93.7625 353.495 93.8058C353.368 93.8476 353.265 93.9111 353.186 93.9962C353.109 94.0798 353.07 94.1939 353.07 94.3385C353.07 94.5361 353.144 94.6855 353.29 94.7867C353.438 94.8864 353.625 94.9362 353.851 94.9362ZM358.109 91.6584V92.1404H356.191V91.6584H358.109ZM356.75 90.7715H357.319V94.2999C357.319 94.4606 357.342 94.5811 357.389 94.6614C357.437 94.7402 357.498 94.7932 357.572 94.8205C357.647 94.8462 357.727 94.859 357.811 94.859C357.873 94.859 357.925 94.8558 357.965 94.8494C358.005 94.8414 358.037 94.8349 358.061 94.8301L358.177 95.3411C358.138 95.3555 358.084 95.37 358.015 95.3845C357.946 95.4005 357.859 95.4086 357.753 95.4086C357.592 95.4086 357.435 95.374 357.28 95.3049C357.128 95.2358 357.001 95.1306 356.9 94.9892C356.8 94.8478 356.75 94.6695 356.75 94.4542V90.7715Z" fill="#444C73"/>
<path d="M395.238 91.6584C395.209 91.4142 395.092 91.2246 394.886 91.0896C394.681 90.9547 394.429 90.8872 394.13 90.8872C393.911 90.8872 393.72 90.9225 393.556 90.9932C393.394 91.0639 393.267 91.1611 393.175 91.2849C393.085 91.4086 393.04 91.5492 393.04 91.7066C393.04 91.8384 393.072 91.9517 393.134 92.0465C393.199 92.1396 393.281 92.2176 393.38 92.2802C393.48 92.3413 393.584 92.3919 393.693 92.4321C393.803 92.4706 393.903 92.502 393.995 92.5261L394.496 92.661C394.625 92.6948 394.768 92.7414 394.925 92.8008C395.084 92.8603 395.236 92.9414 395.381 93.0442C395.527 93.1455 395.647 93.2756 395.742 93.4347C395.837 93.5937 395.884 93.789 395.884 94.0203C395.884 94.2871 395.814 94.5281 395.675 94.7434C395.536 94.9587 395.334 95.1298 395.067 95.2567C394.802 95.3836 394.48 95.4471 394.101 95.4471C393.747 95.4471 393.441 95.3901 393.182 95.276C392.925 95.1619 392.723 95.0029 392.575 94.7988C392.429 94.5947 392.346 94.3577 392.327 94.0878H392.944C392.96 94.2742 393.023 94.4284 393.132 94.5506C393.243 94.6711 393.383 94.761 393.551 94.8205C393.722 94.8783 393.905 94.9073 394.101 94.9073C394.329 94.9073 394.534 94.8703 394.715 94.7964C394.897 94.7209 395.041 94.6164 395.147 94.4831C395.253 94.3481 395.306 94.1906 395.306 94.0107C395.306 93.8468 395.26 93.7134 395.168 93.6106C395.077 93.5078 394.956 93.4242 394.807 93.36C394.657 93.2957 394.496 93.2395 394.322 93.1913L393.715 93.0177C393.33 92.9069 393.024 92.7486 392.799 92.5429C392.574 92.3373 392.462 92.0681 392.462 91.7356C392.462 91.4592 392.537 91.2182 392.686 91.0125C392.837 90.8052 393.039 90.6446 393.293 90.5305C393.549 90.4148 393.834 90.357 394.149 90.357C394.467 90.357 394.75 90.414 394.997 90.5281C395.245 90.6406 395.441 90.7948 395.585 90.9908C395.732 91.1868 395.809 91.4094 395.817 91.6584H395.238ZM399.123 93.8468V91.6584H399.692V95.3604H399.123V94.7337H399.084C398.997 94.9217 398.863 95.0816 398.679 95.2133C398.496 95.3435 398.265 95.4086 397.985 95.4086C397.754 95.4086 397.548 95.3579 397.368 95.2567C397.188 95.1539 397.047 94.9996 396.944 94.794C396.841 94.5867 396.79 94.3256 396.79 94.0107V91.6584H397.359V93.9721C397.359 94.2421 397.434 94.4574 397.585 94.618C397.738 94.7787 397.932 94.859 398.168 94.859C398.31 94.859 398.454 94.8229 398.6 94.7506C398.748 94.6783 398.871 94.5674 398.971 94.418C399.072 94.2686 399.123 94.0782 399.123 93.8468ZM401.302 93.1334V95.3604H400.733V91.6584H401.283V92.2369H401.331C401.418 92.0489 401.55 91.8978 401.726 91.7838C401.903 91.6681 402.131 91.6102 402.411 91.6102C402.661 91.6102 402.881 91.6616 403.069 91.7645C403.257 91.8657 403.403 92.0199 403.507 92.2272C403.612 92.4329 403.664 92.6932 403.664 93.0081V95.3604H403.095V93.0466C403.095 92.7558 403.02 92.5293 402.869 92.367C402.718 92.2031 402.51 92.1212 402.247 92.1212C402.065 92.1212 401.903 92.1605 401.76 92.2393C401.619 92.318 401.507 92.4329 401.425 92.5839C401.343 92.7349 401.302 92.9181 401.302 93.1334Z" fill="#444C73"/>
<path d="M18.455 61.7968C18.1722 61.7968 17.9175 61.7406 17.691 61.6281C17.4644 61.5156 17.2829 61.3614 17.1463 61.1653C17.0097 60.9693 16.935 60.746 16.9222 60.4953H17.5006C17.5231 60.7187 17.6243 60.9034 17.8043 61.0497C17.9858 61.1943 18.2027 61.2666 18.455 61.2666C18.6574 61.2666 18.8374 61.2192 18.9949 61.1244C19.1539 61.0296 19.2784 60.8994 19.3684 60.7339C19.46 60.5668 19.5058 60.378 19.5058 60.1676C19.5058 59.9523 19.4584 59.7603 19.3636 59.5915C19.2704 59.4212 19.1419 59.2871 18.978 59.1891C18.8141 59.091 18.6269 59.0412 18.4164 59.0396C18.2654 59.038 18.1103 59.0613 17.9513 59.1095C17.7922 59.1561 17.6613 59.2164 17.5584 59.2903L16.9993 59.2228L17.2981 56.7934H19.8625V57.3236H17.7994L17.6259 58.7793H17.6548C17.7561 58.699 17.883 58.6323 18.0356 58.5793C18.1883 58.5263 18.3473 58.4998 18.5128 58.4998C18.8149 58.4998 19.084 58.5721 19.3202 58.7167C19.558 58.8597 19.7444 59.0557 19.8794 59.3047C20.0159 59.5538 20.0842 59.8382 20.0842 60.1579C20.0842 60.4728 20.0135 60.754 19.8721 61.0015C19.7323 61.2473 19.5395 61.4417 19.2937 61.5847C19.0479 61.7261 18.7683 61.7968 18.455 61.7968ZM21.5815 60.3796L21.5719 59.6759H21.6875L23.3071 58.0274H24.0109L22.2853 59.7723H22.2371L21.5815 60.3796ZM21.0513 61.7293V56.7934H21.6201V61.7293H21.0513ZM23.4035 61.7293L21.9575 59.8976L22.3624 59.5024L24.1266 61.7293H23.4035Z" fill="#444C73"/>
<path d="M15.2544 32.4738V37.4097H14.6567V33.1005H14.6277L13.4227 33.9006V33.2933L14.6567 32.4738H15.2544ZM18.2839 37.4772C17.9207 37.4772 17.6115 37.3784 17.356 37.1808C17.1005 36.9815 16.9053 36.6931 16.7703 36.3155C16.6354 35.9364 16.5679 35.4784 16.5679 34.9418C16.5679 34.4083 16.6354 33.9528 16.7703 33.5752C16.9069 33.1961 17.1029 32.9068 17.3584 32.7076C17.6155 32.5068 17.924 32.4063 18.2839 32.4063C18.6438 32.4063 18.9515 32.5068 19.2069 32.7076C19.464 32.9068 19.66 33.1961 19.795 33.5752C19.9316 33.9528 19.9999 34.4083 19.9999 34.9418C19.9999 35.4784 19.9324 35.9364 19.7974 36.3155C19.6625 36.6931 19.4672 36.9815 19.2118 37.1808C18.9563 37.3784 18.647 37.4772 18.2839 37.4772ZM18.2839 36.947C18.6438 36.947 18.9234 36.7735 19.1226 36.4264C19.3218 36.0793 19.4214 35.5845 19.4214 34.9418C19.4214 34.5144 19.3757 34.1505 19.2841 33.85C19.1941 33.5495 19.0639 33.3206 18.8936 33.1631C18.7249 33.0057 18.5217 32.9269 18.2839 32.9269C17.9272 32.9269 17.6484 33.1029 17.4476 33.4547C17.2467 33.805 17.1463 34.3007 17.1463 34.9418C17.1463 35.3692 17.1913 35.7323 17.2813 36.0311C17.3712 36.33 17.5006 36.5574 17.6693 36.7132C17.8396 36.8691 18.0445 36.947 18.2839 36.947ZM21.4556 36.0601L21.4459 35.3563H21.5616L23.1812 33.7078H23.885L22.1593 35.4527H22.1111L21.4556 36.0601ZM20.9254 37.4097V32.4738H21.4941V37.4097H20.9254ZM23.2776 37.4097L21.8316 35.578L22.2364 35.1828L24.0006 37.4097H23.2776Z" fill="#444C73"/>
<path d="M10.7298 10.4165V15.3524H10.1321V11.0431H10.1032L8.89812 11.8433V11.236L10.1321 10.4165H10.7298ZM13.7593 15.4199C13.3962 15.4199 13.0869 15.3211 12.8314 15.1235C12.5759 14.9242 12.3807 14.6358 12.2458 14.2582C12.1108 13.879 12.0433 13.4211 12.0433 12.8845C12.0433 12.351 12.1108 11.8955 12.2458 11.5179C12.3823 11.1387 12.5784 10.8495 12.8338 10.6503C13.0909 10.4495 13.3994 10.349 13.7593 10.349C14.1192 10.349 14.4269 10.4495 14.6824 10.6503C14.9395 10.8495 15.1355 11.1387 15.2704 11.5179C15.407 11.8955 15.4753 12.351 15.4753 12.8845C15.4753 13.4211 15.4078 13.879 15.2729 14.2582C15.1379 14.6358 14.9427 14.9242 14.6872 15.1235C14.4317 15.3211 14.1224 15.4199 13.7593 15.4199ZM13.7593 14.8897C14.1192 14.8897 14.3988 14.7161 14.598 14.3691C14.7973 14.022 14.8969 13.5272 14.8969 12.8845C14.8969 12.4571 14.8511 12.0931 14.7595 11.7927C14.6695 11.4922 14.5394 11.2633 14.3691 11.1058C14.2004 10.9483 13.9971 10.8696 13.7593 10.8696C13.4026 10.8696 13.1238 11.0456 12.923 11.3974C12.7222 11.7477 12.6217 12.2434 12.6217 12.8845C12.6217 13.3119 12.6667 13.675 12.7567 13.9738C12.8467 14.2727 12.976 14.5 13.1447 14.6559C13.315 14.8117 13.5199 14.8897 13.7593 14.8897ZM18.0011 15.4199C17.638 15.4199 17.3287 15.3211 17.0732 15.1235C16.8177 14.9242 16.6225 14.6358 16.4875 14.2582C16.3526 13.879 16.2851 13.4211 16.2851 12.8845C16.2851 12.351 16.3526 11.8955 16.4875 11.5179C16.6241 11.1387 16.8201 10.8495 17.0756 10.6503C17.3327 10.4495 17.6412 10.349 18.0011 10.349C18.361 10.349 18.6687 10.4495 18.9242 10.6503C19.1812 10.8495 19.3773 11.1387 19.5122 11.5179C19.6488 11.8955 19.7171 12.351 19.7171 12.8845C19.7171 13.4211 19.6496 13.879 19.5146 14.2582C19.3797 14.6358 19.1845 14.9242 18.929 15.1235C18.6735 15.3211 18.3642 15.4199 18.0011 15.4199ZM18.0011 14.8897C18.361 14.8897 18.6406 14.7161 18.8398 14.3691C19.039 14.022 19.1387 13.5272 19.1387 12.8845C19.1387 12.4571 19.0929 12.0931 19.0013 11.7927C18.9113 11.4922 18.7812 11.2633 18.6109 11.1058C18.4421 10.9483 18.2389 10.8696 18.0011 10.8696C17.6444 10.8696 17.3656 11.0456 17.1648 11.3974C16.9639 11.7477 16.8635 12.2434 16.8635 12.8845C16.8635 13.3119 16.9085 13.675 16.9985 13.9738C17.0885 14.2727 17.2178 14.5 17.3865 14.6559C17.5568 14.8117 17.7617 14.8897 18.0011 14.8897ZM21.1728 14.0028L21.1632 13.299H21.2788L22.8984 11.6505H23.6022L21.8765 13.3954H21.8283L21.1728 14.0028ZM20.6426 15.3524V10.4165H21.2114V15.3524H20.6426ZM22.9948 15.3524L21.5488 13.5207L21.9537 13.1255L23.7179 15.3524H22.9948Z" fill="#444C73"/>
<line x1="31.3892" y1="9.04913" x2="31.3892" y2="85.4013" stroke="#151934" stroke-width="0.565572" stroke-dasharray="2.26 2.26"/>
<line x1="77.2005" y1="9.04913" x2="77.2005" y2="85.4013" stroke="#151934" stroke-width="0.565572" stroke-dasharray="2.26 2.26"/>
<line x1="123.012" y1="9.04913" x2="123.012" y2="85.4013" stroke="#151934" stroke-width="0.565572" stroke-dasharray="2.26 2.26"/>
<line x1="168.823" y1="9.04913" x2="168.823" y2="85.4013" stroke="#151934" stroke-width="0.565572" stroke-dasharray="2.26 2.26"/>
<line x1="214.635" y1="9.04913" x2="214.634" y2="85.4013" stroke="#151934" stroke-width="0.565572" stroke-dasharray="2.26 2.26"/>
<line x1="260.446" y1="9.04913" x2="260.446" y2="85.4013" stroke="#151934" stroke-width="0.565572" stroke-dasharray="2.26 2.26"/>
<line x1="306.257" y1="9.04913" x2="306.257" y2="85.4013" stroke="#151934" stroke-width="0.565572" stroke-dasharray="2.26 2.26"/>
<line x1="352.068" y1="9.04913" x2="352.068" y2="85.4013" stroke="#151934" stroke-width="0.565572" stroke-dasharray="2.26 2.26"/>
<line x1="397.88" y1="9.04913" x2="397.88" y2="85.4013" stroke="#151934" stroke-width="0.565572" stroke-dasharray="2.26 2.26"/>
<path d="M51.7323 63.6739L32.2376 46.5551V85.4014H389.113V57.2519L379.88 60.042C377.167 60.862 374.265 59.5466 373.094 56.9655L363.504 35.8344C362.453 33.5197 359.988 32.1903 357.476 32.5844L343.508 34.7771C341.472 35.0968 339.423 34.2833 338.16 32.654L334.651 28.1243C332.768 25.6948 329.29 25.2134 326.818 27.0403L295.912 49.8842C293.852 51.407 291.026 51.3547 289.023 49.7568L274.802 38.4092C272.573 36.6303 269.368 36.7897 267.326 38.7811L254.941 50.8597C253.885 51.8899 252.468 52.4665 250.992 52.4665H235.337C233.943 52.4665 232.599 51.9519 231.561 51.0215L212.055 33.5301C210.906 32.5 209.386 31.9839 207.848 32.1016L167.969 35.1524C166.756 35.2452 165.605 35.7268 164.687 36.5257L145.061 53.6101C144.031 54.5063 142.713 54.9999 141.348 54.9999H123.263C121.547 54.9999 119.924 55.7789 118.85 57.1175L105.165 74.1837C103.806 75.8788 101.596 76.6454 99.4792 76.156L86.942 73.2577C86.25 73.0977 85.5943 72.8088 85.0092 72.4061L71.3078 62.9754C69.9258 62.0242 68.1928 61.7356 66.5772 62.1877L56.988 64.8707C55.1464 65.386 53.1692 64.9357 51.7323 63.6739Z" fill="url(#paint0_linear_5_37)"/>
<path d="M32.2376 46.5385L51.733 63.6456C53.1696 64.9061 55.1456 65.3559 56.9862 64.8413L66.5788 62.1593C68.1935 61.7078 69.9253 61.996 71.3068 62.9462L85.0095 72.3709C85.5944 72.7732 86.2498 73.0618 86.9416 73.2215L99.4811 76.1183C101.597 76.6071 103.806 75.8411 105.165 74.1474L118.85 57.0932C119.924 55.7555 121.546 54.9772 123.261 54.9772H141.349C142.713 54.9772 144.031 54.4841 145.061 53.5887L164.688 36.5162C165.605 35.718 166.756 35.2368 167.968 35.1441L207.849 32.0955C209.387 31.9779 210.906 32.4934 212.054 33.5226L231.561 51.002C232.599 51.9315 233.943 52.4456 235.336 52.4456H250.994C252.468 52.4456 253.885 51.8695 254.941 50.8402L267.327 38.7689C269.369 36.7793 272.572 36.62 274.801 38.3972L289.025 49.7391C291.026 51.3354 293.851 51.3876 295.911 49.8664L326.82 27.0365C329.291 25.2113 332.767 25.6924 334.65 28.1201L338.161 32.6477C339.423 34.2758 341.471 35.0886 343.507 34.7694L357.478 32.5778C359.988 32.184 362.453 33.5128 363.504 35.8264L373.094 56.9407C374.265 59.5207 377.165 60.8353 379.878 60.0162L389.113 57.2275" stroke="url(#paint1_linear_5_37)" stroke-width="1.13114" stroke-linecap="round"/>
<circle cx="392.507" cy="55.9916" r="3.46413" stroke="#7214FF" stroke-width="0.989751"/>
<circle cx="392.507" cy="55.9916" r="1.13114" fill="#7214FF"/>
<defs>
<linearGradient id="paint0_linear_5_37" x1="210.675" y1="23.754" x2="210.675" y2="85.4014" gradientUnits="userSpaceOnUse">
<stop stop-color="#7214FF" stop-opacity="0.29"/>
<stop offset="1" stop-color="#7214FF" stop-opacity="0"/>
</linearGradient>
<linearGradient id="paint1_linear_5_37" x1="210.675" y1="23.754" x2="210.675" y2="76.9178" gradientUnits="userSpaceOnUse">
<stop stop-color="#7214FF"/>
<stop offset="1" stop-color="#7214FF"/>
</linearGradient>
</defs>
</svg>
